<mxfile host="Electron" modified="2023-11-30T05:45:00.701Z" agent="Mozilla/5.0 (X11; Linux x86_64) AppleWebKit/537.36 (KHTML, like Gecko) draw.io/22.1.2 Chrome/114.0.5735.289 Electron/25.9.4 Safari/537.36" etag="93U7q47m9DWtgE1hBUkF" version="22.1.2" type="device">
  <diagram id="R2lEEEUBdFMjLlhIrx00" name="Page-1">
    <mxGraphModel dx="941" dy="581" grid="1" gridSize="10" guides="1" tooltips="1" connect="1" arrows="1" fold="1" page="1" pageScale="1" pageWidth="850" pageHeight="1100" math="0" shadow="0" extFonts="Permanent Marker^https://fonts.googleapis.com/css?family=Permanent+Marker">
      <root>
        <mxCell id="0" />
        <mxCell id="1" parent="0" />
        <mxCell id="8zY7TGZ-dhfSYkGF-3i7-8" style="rounded=0;orthogonalLoop=1;jettySize=auto;html=1;entryX=1;entryY=1;entryDx=0;entryDy=0;strokeWidth=1;endArrow=none;endFill=0;spacing=1;" parent="1" source="8zY7TGZ-dhfSYkGF-3i7-1" target="8zY7TGZ-dhfSYkGF-3i7-2" edge="1">
          <mxGeometry relative="1" as="geometry" />
        </mxCell>
        <mxCell id="8zY7TGZ-dhfSYkGF-3i7-16" style="edgeStyle=orthogonalEdgeStyle;rounded=0;orthogonalLoop=1;jettySize=auto;html=1;entryX=0.5;entryY=0;entryDx=0;entryDy=0;endArrow=none;endFill=0;" parent="1" source="8zY7TGZ-dhfSYkGF-3i7-1" target="8zY7TGZ-dhfSYkGF-3i7-15" edge="1">
          <mxGeometry relative="1" as="geometry" />
        </mxCell>
        <mxCell id="8zY7TGZ-dhfSYkGF-3i7-21" value="0..n" style="edgeLabel;html=1;align=center;verticalAlign=middle;resizable=0;points=[];" parent="8zY7TGZ-dhfSYkGF-3i7-16" vertex="1" connectable="0">
          <mxGeometry x="-0.35" y="2" relative="1" as="geometry">
            <mxPoint as="offset" />
          </mxGeometry>
        </mxCell>
        <mxCell id="8zY7TGZ-dhfSYkGF-3i7-1" value="&lt;font style=&quot;font-size: 16px;&quot;&gt;&lt;b&gt;Events&lt;br&gt;&lt;/b&gt;&lt;/font&gt;" style="whiteSpace=wrap;html=1;align=center;fillColor=#f8cecc;strokeColor=#b85450;" parent="1" vertex="1">
          <mxGeometry x="120" y="80" width="100" height="40" as="geometry" />
        </mxCell>
        <mxCell id="8zY7TGZ-dhfSYkGF-3i7-2" value="&lt;font style=&quot;font-size: 16px;&quot;&gt;&lt;b&gt;EventID&lt;/b&gt;&lt;/font&gt;" style="ellipse;whiteSpace=wrap;html=1;align=center;fontStyle=4;fillColor=#d5e8d4;strokeColor=#82b366;" parent="1" vertex="1">
          <mxGeometry width="90" height="40" as="geometry" />
        </mxCell>
        <mxCell id="8zY7TGZ-dhfSYkGF-3i7-3" value="&lt;font style=&quot;font-size: 16px;&quot;&gt;&lt;b&gt;Name&lt;/b&gt;&lt;/font&gt;" style="ellipse;whiteSpace=wrap;html=1;align=center;fillColor=#d5e8d4;strokeColor=#82b366;" parent="1" vertex="1">
          <mxGeometry y="50" width="60" height="40" as="geometry" />
        </mxCell>
        <mxCell id="8zY7TGZ-dhfSYkGF-3i7-4" value="&lt;font style=&quot;font-size: 16px;&quot;&gt;&lt;b&gt;Location&lt;/b&gt;&lt;/font&gt;" style="ellipse;whiteSpace=wrap;html=1;align=center;fillColor=#d5e8d4;strokeColor=#82b366;" parent="1" vertex="1">
          <mxGeometry y="100" width="80" height="40" as="geometry" />
        </mxCell>
        <mxCell id="8zY7TGZ-dhfSYkGF-3i7-5" value="&lt;font style=&quot;font-size: 16px;&quot;&gt;&lt;b&gt;StartTime&lt;/b&gt;&lt;/font&gt;" style="ellipse;whiteSpace=wrap;html=1;align=center;fillColor=#d5e8d4;strokeColor=#82b366;" parent="1" vertex="1">
          <mxGeometry x="100" width="100" height="40" as="geometry" />
        </mxCell>
        <mxCell id="8zY7TGZ-dhfSYkGF-3i7-6" value="&lt;font style=&quot;font-size: 16px;&quot;&gt;&lt;b&gt;EndTime&lt;/b&gt;&lt;/font&gt;" style="ellipse;whiteSpace=wrap;html=1;align=center;fillColor=#d5e8d4;strokeColor=#82b366;" parent="1" vertex="1">
          <mxGeometry x="210" width="80" height="40" as="geometry" />
        </mxCell>
        <mxCell id="8zY7TGZ-dhfSYkGF-3i7-7" value="&lt;font style=&quot;font-size: 16px;&quot;&gt;&lt;b&gt;&lt;i&gt;UserID&lt;br&gt;&lt;/i&gt;&lt;/b&gt;&lt;/font&gt;" style="ellipse;whiteSpace=wrap;html=1;align=center;fillColor=#d5e8d4;strokeColor=#82b366;" parent="1" vertex="1">
          <mxGeometry y="150" width="80" height="40" as="geometry" />
        </mxCell>
        <mxCell id="8zY7TGZ-dhfSYkGF-3i7-9" style="rounded=0;orthogonalLoop=1;jettySize=auto;html=1;entryX=1;entryY=1;entryDx=0;entryDy=0;strokeWidth=1;endArrow=none;endFill=0;exitX=0;exitY=0.25;exitDx=0;exitDy=0;spacing=1;" parent="1" source="8zY7TGZ-dhfSYkGF-3i7-1" edge="1">
          <mxGeometry relative="1" as="geometry">
            <mxPoint x="125" y="120" as="sourcePoint" />
            <mxPoint x="60" y="74" as="targetPoint" />
          </mxGeometry>
        </mxCell>
        <mxCell id="8zY7TGZ-dhfSYkGF-3i7-10" style="rounded=0;orthogonalLoop=1;jettySize=auto;html=1;strokeWidth=1;endArrow=none;endFill=0;exitX=0;exitY=0.5;exitDx=0;exitDy=0;spacing=1;" parent="1" source="8zY7TGZ-dhfSYkGF-3i7-1" target="8zY7TGZ-dhfSYkGF-3i7-4" edge="1">
          <mxGeometry relative="1" as="geometry">
            <mxPoint x="130" y="100" as="sourcePoint" />
            <mxPoint x="70" y="84" as="targetPoint" />
          </mxGeometry>
        </mxCell>
        <mxCell id="8zY7TGZ-dhfSYkGF-3i7-11" style="rounded=0;orthogonalLoop=1;jettySize=auto;html=1;strokeWidth=1;endArrow=none;endFill=0;exitX=0;exitY=0.75;exitDx=0;exitDy=0;spacing=1;" parent="1" source="8zY7TGZ-dhfSYkGF-3i7-1" target="8zY7TGZ-dhfSYkGF-3i7-7" edge="1">
          <mxGeometry relative="1" as="geometry">
            <mxPoint x="140" y="110" as="sourcePoint" />
            <mxPoint x="80" y="94" as="targetPoint" />
          </mxGeometry>
        </mxCell>
        <mxCell id="8zY7TGZ-dhfSYkGF-3i7-12" style="rounded=0;orthogonalLoop=1;jettySize=auto;html=1;entryX=0.524;entryY=1.006;entryDx=0;entryDy=0;strokeWidth=1;endArrow=none;endFill=0;exitX=0.5;exitY=0;exitDx=0;exitDy=0;entryPerimeter=0;spacing=1;" parent="1" source="8zY7TGZ-dhfSYkGF-3i7-1" target="8zY7TGZ-dhfSYkGF-3i7-5" edge="1">
          <mxGeometry relative="1" as="geometry">
            <mxPoint x="150" y="120" as="sourcePoint" />
            <mxPoint x="90" y="104" as="targetPoint" />
          </mxGeometry>
        </mxCell>
        <mxCell id="8zY7TGZ-dhfSYkGF-3i7-13" style="rounded=0;orthogonalLoop=1;jettySize=auto;html=1;strokeWidth=1;endArrow=none;endFill=0;exitX=0.824;exitY=0.007;exitDx=0;exitDy=0;exitPerimeter=0;spacing=1;" parent="1" source="8zY7TGZ-dhfSYkGF-3i7-1" target="8zY7TGZ-dhfSYkGF-3i7-6" edge="1">
          <mxGeometry relative="1" as="geometry">
            <mxPoint x="180" y="90" as="sourcePoint" />
            <mxPoint x="183" y="50" as="targetPoint" />
          </mxGeometry>
        </mxCell>
        <mxCell id="8zY7TGZ-dhfSYkGF-3i7-14" value="&lt;font style=&quot;font-size: 16px;&quot;&gt;&lt;b&gt;User&lt;br&gt;&lt;/b&gt;&lt;/font&gt;" style="whiteSpace=wrap;html=1;align=center;fillColor=#f8cecc;strokeColor=#b85450;" parent="1" vertex="1">
          <mxGeometry x="120" y="300" width="100" height="40" as="geometry" />
        </mxCell>
        <mxCell id="8zY7TGZ-dhfSYkGF-3i7-15" value="&lt;b&gt;Organize&lt;/b&gt;" style="shape=rhombus;perimeter=rhombusPerimeter;whiteSpace=wrap;html=1;align=center;fillColor=#dae8fc;strokeColor=#6c8ebf;fontSize=16;" parent="1" vertex="1">
          <mxGeometry x="110" y="180" width="120" height="60" as="geometry" />
        </mxCell>
        <mxCell id="8zY7TGZ-dhfSYkGF-3i7-17" style="edgeStyle=orthogonalEdgeStyle;rounded=0;orthogonalLoop=1;jettySize=auto;html=1;entryX=0.5;entryY=0;entryDx=0;entryDy=0;endArrow=none;endFill=0;" parent="1" edge="1">
          <mxGeometry relative="1" as="geometry">
            <mxPoint x="169.76" y="240" as="sourcePoint" />
            <mxPoint x="169.76" y="300" as="targetPoint" />
          </mxGeometry>
        </mxCell>
        <mxCell id="8zY7TGZ-dhfSYkGF-3i7-22" value="1" style="edgeLabel;html=1;align=center;verticalAlign=middle;resizable=0;points=[];" parent="8zY7TGZ-dhfSYkGF-3i7-17" vertex="1" connectable="0">
          <mxGeometry x="0.0111" relative="1" as="geometry">
            <mxPoint as="offset" />
          </mxGeometry>
        </mxCell>
        <mxCell id="8zY7TGZ-dhfSYkGF-3i7-23" style="rounded=0;orthogonalLoop=1;jettySize=auto;html=1;entryX=0.25;entryY=0;entryDx=0;entryDy=0;endArrow=none;endFill=0;" parent="1" source="8zY7TGZ-dhfSYkGF-3i7-18" target="8zY7TGZ-dhfSYkGF-3i7-14" edge="1">
          <mxGeometry relative="1" as="geometry" />
        </mxCell>
        <mxCell id="8zY7TGZ-dhfSYkGF-3i7-18" value="&lt;font style=&quot;font-size: 16px;&quot;&gt;&lt;b&gt;UserID&lt;/b&gt;&lt;/font&gt;" style="ellipse;whiteSpace=wrap;html=1;align=center;fontStyle=4;fillColor=#d5e8d4;strokeColor=#82b366;" parent="1" vertex="1">
          <mxGeometry y="210" width="80" height="40" as="geometry" />
        </mxCell>
        <mxCell id="8zY7TGZ-dhfSYkGF-3i7-24" style="rounded=0;orthogonalLoop=1;jettySize=auto;html=1;exitX=1;exitY=0.5;exitDx=0;exitDy=0;entryX=0;entryY=0.25;entryDx=0;entryDy=0;endArrow=none;endFill=0;" parent="1" source="8zY7TGZ-dhfSYkGF-3i7-19" target="8zY7TGZ-dhfSYkGF-3i7-14" edge="1">
          <mxGeometry relative="1" as="geometry" />
        </mxCell>
        <mxCell id="8zY7TGZ-dhfSYkGF-3i7-19" value="&lt;font style=&quot;font-size: 16px;&quot;&gt;&lt;b&gt;Name&lt;/b&gt;&lt;/font&gt;" style="ellipse;whiteSpace=wrap;html=1;align=center;fillColor=#d5e8d4;strokeColor=#82b366;" parent="1" vertex="1">
          <mxGeometry y="260" width="80" height="40" as="geometry" />
        </mxCell>
        <mxCell id="8zY7TGZ-dhfSYkGF-3i7-25" style="rounded=0;orthogonalLoop=1;jettySize=auto;html=1;entryX=0;entryY=0.5;entryDx=0;entryDy=0;endArrow=none;endFill=0;" parent="1" source="8zY7TGZ-dhfSYkGF-3i7-20" target="8zY7TGZ-dhfSYkGF-3i7-14" edge="1">
          <mxGeometry relative="1" as="geometry" />
        </mxCell>
        <mxCell id="8zY7TGZ-dhfSYkGF-3i7-20" value="&lt;font style=&quot;font-size: 16px;&quot;&gt;&lt;b&gt;Email&lt;/b&gt;&lt;/font&gt;" style="ellipse;whiteSpace=wrap;html=1;align=center;fillColor=#d5e8d4;strokeColor=#82b366;" parent="1" vertex="1">
          <mxGeometry y="310" width="80" height="40" as="geometry" />
        </mxCell>
        <mxCell id="8zY7TGZ-dhfSYkGF-3i7-39" style="edgeStyle=orthogonalEdgeStyle;rounded=0;orthogonalLoop=1;jettySize=auto;html=1;entryX=0.5;entryY=1;entryDx=0;entryDy=0;endArrow=none;endFill=0;" parent="1" source="8zY7TGZ-dhfSYkGF-3i7-26" target="8zY7TGZ-dhfSYkGF-3i7-27" edge="1">
          <mxGeometry relative="1" as="geometry" />
        </mxCell>
        <mxCell id="8zY7TGZ-dhfSYkGF-3i7-26" value="&lt;font style=&quot;&quot;&gt;&lt;b&gt;&lt;font style=&quot;font-size: 16px;&quot;&gt;Properties&lt;/font&gt;&lt;/b&gt;&lt;br&gt;&lt;/font&gt;" style="whiteSpace=wrap;html=1;align=center;fillColor=#f8cecc;strokeColor=#b85450;" parent="1" vertex="1">
          <mxGeometry x="645" y="80" width="100" height="40" as="geometry" />
        </mxCell>
        <mxCell id="8zY7TGZ-dhfSYkGF-3i7-27" value="&lt;font style=&quot;font-size: 16px;&quot;&gt;&lt;b&gt;PropertyID&lt;/b&gt;&lt;/font&gt;" style="ellipse;whiteSpace=wrap;html=1;align=center;fontStyle=4;fillColor=#d5e8d4;strokeColor=#82b366;" parent="1" vertex="1">
          <mxGeometry x="642.5" width="105" height="40" as="geometry" />
        </mxCell>
        <mxCell id="8zY7TGZ-dhfSYkGF-3i7-41" style="rounded=0;orthogonalLoop=1;jettySize=auto;html=1;entryX=1;entryY=0;entryDx=0;entryDy=0;endArrow=none;endFill=0;" parent="1" source="8zY7TGZ-dhfSYkGF-3i7-28" target="8zY7TGZ-dhfSYkGF-3i7-26" edge="1">
          <mxGeometry relative="1" as="geometry" />
        </mxCell>
        <mxCell id="8zY7TGZ-dhfSYkGF-3i7-28" value="&lt;font style=&quot;font-size: 16px;&quot;&gt;&lt;b&gt;Name&lt;/b&gt;&lt;/font&gt;" style="ellipse;whiteSpace=wrap;html=1;align=center;fillColor=#d5e8d4;strokeColor=#82b366;" parent="1" vertex="1">
          <mxGeometry x="760" width="60" height="40" as="geometry" />
        </mxCell>
        <mxCell id="8zY7TGZ-dhfSYkGF-3i7-94" style="edgeStyle=orthogonalEdgeStyle;rounded=0;orthogonalLoop=1;jettySize=auto;html=1;endArrow=none;endFill=0;" parent="1" source="8zY7TGZ-dhfSYkGF-3i7-29" target="8zY7TGZ-dhfSYkGF-3i7-92" edge="1">
          <mxGeometry relative="1" as="geometry" />
        </mxCell>
        <mxCell id="8zY7TGZ-dhfSYkGF-3i7-95" value="1" style="edgeLabel;html=1;align=center;verticalAlign=middle;resizable=0;points=[];" parent="8zY7TGZ-dhfSYkGF-3i7-94" vertex="1" connectable="0">
          <mxGeometry x="-0.4131" relative="1" as="geometry">
            <mxPoint as="offset" />
          </mxGeometry>
        </mxCell>
        <mxCell id="8zY7TGZ-dhfSYkGF-3i7-29" value="&lt;font style=&quot;&quot;&gt;&lt;b&gt;&lt;font style=&quot;font-size: 16px;&quot;&gt;PropertyOptions&lt;/font&gt;&lt;/b&gt;&lt;br&gt;&lt;/font&gt;" style="whiteSpace=wrap;html=1;align=center;fillColor=#f8cecc;strokeColor=#b85450;" parent="1" vertex="1">
          <mxGeometry x="625" y="300" width="140" height="40" as="geometry" />
        </mxCell>
        <mxCell id="8zY7TGZ-dhfSYkGF-3i7-42" style="rounded=0;orthogonalLoop=1;jettySize=auto;html=1;entryX=0.75;entryY=0;entryDx=0;entryDy=0;endArrow=none;endFill=0;" parent="1" source="8zY7TGZ-dhfSYkGF-3i7-30" target="8zY7TGZ-dhfSYkGF-3i7-29" edge="1">
          <mxGeometry relative="1" as="geometry" />
        </mxCell>
        <mxCell id="8zY7TGZ-dhfSYkGF-3i7-30" value="&lt;font style=&quot;font-size: 16px;&quot;&gt;&lt;b&gt;OptionID&lt;/b&gt;&lt;/font&gt;" style="ellipse;whiteSpace=wrap;html=1;align=center;fontStyle=4;fillColor=#d5e8d4;strokeColor=#82b366;" parent="1" vertex="1">
          <mxGeometry x="795" y="190" width="105" height="40" as="geometry" />
        </mxCell>
        <mxCell id="8zY7TGZ-dhfSYkGF-3i7-31" value="&lt;font style=&quot;font-size: 16px;&quot;&gt;&lt;b&gt;Name&lt;/b&gt;&lt;/font&gt;" style="ellipse;whiteSpace=wrap;html=1;align=center;fillColor=#d5e8d4;strokeColor=#82b366;" parent="1" vertex="1">
          <mxGeometry x="817.5" y="250" width="60" height="40" as="geometry" />
        </mxCell>
        <mxCell id="8zY7TGZ-dhfSYkGF-3i7-44" style="edgeStyle=orthogonalEdgeStyle;rounded=0;orthogonalLoop=1;jettySize=auto;html=1;endArrow=none;endFill=0;" parent="1" source="8zY7TGZ-dhfSYkGF-3i7-32" target="8zY7TGZ-dhfSYkGF-3i7-29" edge="1">
          <mxGeometry relative="1" as="geometry" />
        </mxCell>
        <mxCell id="8zY7TGZ-dhfSYkGF-3i7-32" value="&lt;font style=&quot;font-size: 16px;&quot;&gt;&lt;b&gt;&lt;i&gt;PropertyID&lt;/i&gt;&lt;/b&gt;&lt;/font&gt;" style="ellipse;whiteSpace=wrap;html=1;align=center;fillColor=#d5e8d4;strokeColor=#82b366;" parent="1" vertex="1">
          <mxGeometry x="800" y="300" width="100" height="40" as="geometry" />
        </mxCell>
        <mxCell id="8zY7TGZ-dhfSYkGF-3i7-33" style="edgeStyle=orthogonalEdgeStyle;rounded=0;orthogonalLoop=1;jettySize=auto;html=1;entryX=0.5;entryY=0;entryDx=0;entryDy=0;endArrow=none;endFill=0;" parent="1" target="8zY7TGZ-dhfSYkGF-3i7-35" edge="1">
          <mxGeometry relative="1" as="geometry">
            <mxPoint x="692.5" y="120" as="sourcePoint" />
          </mxGeometry>
        </mxCell>
        <mxCell id="8zY7TGZ-dhfSYkGF-3i7-34" value="1" style="edgeLabel;html=1;align=center;verticalAlign=middle;resizable=0;points=[];" parent="8zY7TGZ-dhfSYkGF-3i7-33" vertex="1" connectable="0">
          <mxGeometry x="-0.35" y="2" relative="1" as="geometry">
            <mxPoint as="offset" />
          </mxGeometry>
        </mxCell>
        <mxCell id="8zY7TGZ-dhfSYkGF-3i7-35" value="&lt;b&gt;Contains&lt;/b&gt;" style="shape=rhombus;perimeter=rhombusPerimeter;whiteSpace=wrap;html=1;align=center;fillColor=#dae8fc;strokeColor=#6c8ebf;fontSize=16;" parent="1" vertex="1">
          <mxGeometry x="632.5" y="180" width="120" height="60" as="geometry" />
        </mxCell>
        <mxCell id="8zY7TGZ-dhfSYkGF-3i7-36" style="edgeStyle=orthogonalEdgeStyle;rounded=0;orthogonalLoop=1;jettySize=auto;html=1;entryX=0.5;entryY=0;entryDx=0;entryDy=0;endArrow=none;endFill=0;" parent="1" edge="1">
          <mxGeometry relative="1" as="geometry">
            <mxPoint x="692.26" y="240" as="sourcePoint" />
            <mxPoint x="692.26" y="300" as="targetPoint" />
          </mxGeometry>
        </mxCell>
        <mxCell id="8zY7TGZ-dhfSYkGF-3i7-37" value="n" style="edgeLabel;html=1;align=center;verticalAlign=middle;resizable=0;points=[];" parent="8zY7TGZ-dhfSYkGF-3i7-36" vertex="1" connectable="0">
          <mxGeometry x="0.0111" relative="1" as="geometry">
            <mxPoint as="offset" />
          </mxGeometry>
        </mxCell>
        <mxCell id="8zY7TGZ-dhfSYkGF-3i7-43" style="rounded=0;orthogonalLoop=1;jettySize=auto;html=1;entryX=0.988;entryY=0.15;entryDx=0;entryDy=0;entryPerimeter=0;endArrow=none;endFill=0;" parent="1" source="8zY7TGZ-dhfSYkGF-3i7-31" target="8zY7TGZ-dhfSYkGF-3i7-29" edge="1">
          <mxGeometry relative="1" as="geometry" />
        </mxCell>
        <mxCell id="8zY7TGZ-dhfSYkGF-3i7-93" value="0..n" style="edgeStyle=orthogonalEdgeStyle;rounded=0;orthogonalLoop=1;jettySize=auto;html=1;entryX=0.5;entryY=0;entryDx=0;entryDy=0;endArrow=none;endFill=0;" parent="1" source="8zY7TGZ-dhfSYkGF-3i7-45" target="8zY7TGZ-dhfSYkGF-3i7-92" edge="1">
          <mxGeometry relative="1" as="geometry" />
        </mxCell>
        <mxCell id="8zY7TGZ-dhfSYkGF-3i7-45" value="&lt;font style=&quot;&quot;&gt;&lt;b&gt;&lt;font style=&quot;font-size: 16px;&quot;&gt;EventOptions&lt;/font&gt;&lt;/b&gt;&lt;br&gt;&lt;/font&gt;" style="whiteSpace=wrap;html=1;align=center;fillColor=#f8cecc;strokeColor=#b85450;" parent="1" vertex="1">
          <mxGeometry x="460" y="80" width="140" height="40" as="geometry" />
        </mxCell>
        <mxCell id="8zY7TGZ-dhfSYkGF-3i7-51" style="rounded=0;orthogonalLoop=1;jettySize=auto;html=1;entryX=0;entryY=0.75;entryDx=0;entryDy=0;exitX=1;exitY=0.5;exitDx=0;exitDy=0;endArrow=none;endFill=0;" parent="1" source="8zY7TGZ-dhfSYkGF-3i7-47" target="8zY7TGZ-dhfSYkGF-3i7-14" edge="1">
          <mxGeometry relative="1" as="geometry" />
        </mxCell>
        <mxCell id="8zY7TGZ-dhfSYkGF-3i7-47" value="&lt;font style=&quot;font-size: 16px;&quot;&gt;&lt;b&gt;Password&lt;/b&gt;&lt;/font&gt;" style="ellipse;whiteSpace=wrap;html=1;align=center;fillColor=#d5e8d4;strokeColor=#82b366;" parent="1" vertex="1">
          <mxGeometry y="360" width="90" height="40" as="geometry" />
        </mxCell>
        <mxCell id="8zY7TGZ-dhfSYkGF-3i7-53" value="&lt;span style=&quot;font-size: 16px;&quot;&gt;&lt;b&gt;LastLoginTime&lt;/b&gt;&lt;/span&gt;" style="ellipse;whiteSpace=wrap;html=1;align=center;fillColor=#d5e8d4;strokeColor=#82b366;" parent="1" vertex="1">
          <mxGeometry x="230" y="210" width="130" height="40" as="geometry" />
        </mxCell>
        <mxCell id="8zY7TGZ-dhfSYkGF-3i7-54" style="rounded=0;orthogonalLoop=1;jettySize=auto;html=1;entryX=0.5;entryY=1;entryDx=0;entryDy=0;endArrow=none;endFill=0;exitX=0.751;exitY=-0.02;exitDx=0;exitDy=0;exitPerimeter=0;" parent="1" source="8zY7TGZ-dhfSYkGF-3i7-14" target="8zY7TGZ-dhfSYkGF-3i7-53" edge="1">
          <mxGeometry relative="1" as="geometry" />
        </mxCell>
        <mxCell id="8zY7TGZ-dhfSYkGF-3i7-55" value="&lt;font style=&quot;font-size: 16px;&quot;&gt;&lt;b&gt;&lt;i&gt;PortfolioID&lt;br&gt;&lt;/i&gt;&lt;/b&gt;&lt;/font&gt;" style="ellipse;whiteSpace=wrap;html=1;align=center;fillColor=#d5e8d4;strokeColor=#82b366;" parent="1" vertex="1">
          <mxGeometry x="237.5" y="270" width="115" height="40" as="geometry" />
        </mxCell>
        <mxCell id="8zY7TGZ-dhfSYkGF-3i7-56" style="rounded=0;orthogonalLoop=1;jettySize=auto;html=1;entryX=0.997;entryY=0.455;entryDx=0;entryDy=0;entryPerimeter=0;endArrow=none;endFill=0;" parent="1" source="8zY7TGZ-dhfSYkGF-3i7-55" target="8zY7TGZ-dhfSYkGF-3i7-14" edge="1">
          <mxGeometry relative="1" as="geometry" />
        </mxCell>
        <mxCell id="8zY7TGZ-dhfSYkGF-3i7-57" value="&lt;font style=&quot;font-size: 16px;&quot;&gt;&lt;b&gt;Portfolio&lt;br&gt;&lt;/b&gt;&lt;/font&gt;" style="whiteSpace=wrap;html=1;align=center;fillColor=#f8cecc;strokeColor=#b85450;" parent="1" vertex="1">
          <mxGeometry x="120" y="520" width="100" height="40" as="geometry" />
        </mxCell>
        <mxCell id="8zY7TGZ-dhfSYkGF-3i7-60" value="&lt;font style=&quot;font-size: 16px;&quot;&gt;&lt;b&gt;PortfolioID&lt;/b&gt;&lt;/font&gt;" style="ellipse;whiteSpace=wrap;html=1;align=center;fontStyle=4;fillColor=#d5e8d4;strokeColor=#82b366;" parent="1" vertex="1">
          <mxGeometry y="420" width="105" height="40" as="geometry" />
        </mxCell>
        <mxCell id="8zY7TGZ-dhfSYkGF-3i7-69" style="rounded=0;orthogonalLoop=1;jettySize=auto;html=1;entryX=0;entryY=0.25;entryDx=0;entryDy=0;endArrow=none;endFill=0;" parent="1" source="8zY7TGZ-dhfSYkGF-3i7-61" target="8zY7TGZ-dhfSYkGF-3i7-57" edge="1">
          <mxGeometry relative="1" as="geometry" />
        </mxCell>
        <mxCell id="8zY7TGZ-dhfSYkGF-3i7-61" value="&lt;font style=&quot;font-size: 16px;&quot;&gt;&lt;b&gt;Name&lt;/b&gt;&lt;/font&gt;" style="ellipse;whiteSpace=wrap;html=1;align=center;fillColor=#d5e8d4;strokeColor=#82b366;" parent="1" vertex="1">
          <mxGeometry y="480" width="80" height="40" as="geometry" />
        </mxCell>
        <mxCell id="8zY7TGZ-dhfSYkGF-3i7-70" style="rounded=0;orthogonalLoop=1;jettySize=auto;html=1;entryX=0;entryY=0.75;entryDx=0;entryDy=0;endArrow=none;endFill=0;" parent="1" source="8zY7TGZ-dhfSYkGF-3i7-62" target="8zY7TGZ-dhfSYkGF-3i7-57" edge="1">
          <mxGeometry relative="1" as="geometry" />
        </mxCell>
        <mxCell id="8zY7TGZ-dhfSYkGF-3i7-62" value="&lt;font style=&quot;font-size: 16px;&quot;&gt;&lt;b&gt;Color&lt;/b&gt;&lt;/font&gt;" style="ellipse;whiteSpace=wrap;html=1;align=center;fillColor=#d5e8d4;strokeColor=#82b366;" parent="1" vertex="1">
          <mxGeometry y="540" width="85" height="40" as="geometry" />
        </mxCell>
        <mxCell id="8zY7TGZ-dhfSYkGF-3i7-63" style="edgeStyle=orthogonalEdgeStyle;rounded=0;orthogonalLoop=1;jettySize=auto;html=1;entryX=0.5;entryY=0;entryDx=0;entryDy=0;endArrow=none;endFill=0;" parent="1" target="8zY7TGZ-dhfSYkGF-3i7-65" edge="1">
          <mxGeometry relative="1" as="geometry">
            <mxPoint x="170" y="340" as="sourcePoint" />
          </mxGeometry>
        </mxCell>
        <mxCell id="8zY7TGZ-dhfSYkGF-3i7-64" value="0..n" style="edgeLabel;html=1;align=center;verticalAlign=middle;resizable=0;points=[];" parent="8zY7TGZ-dhfSYkGF-3i7-63" vertex="1" connectable="0">
          <mxGeometry x="-0.35" y="2" relative="1" as="geometry">
            <mxPoint as="offset" />
          </mxGeometry>
        </mxCell>
        <mxCell id="8zY7TGZ-dhfSYkGF-3i7-65" value="&lt;b&gt;Have&lt;/b&gt;" style="shape=rhombus;perimeter=rhombusPerimeter;whiteSpace=wrap;html=1;align=center;fillColor=#dae8fc;strokeColor=#6c8ebf;fontSize=16;" parent="1" vertex="1">
          <mxGeometry x="110" y="400" width="120" height="60" as="geometry" />
        </mxCell>
        <mxCell id="8zY7TGZ-dhfSYkGF-3i7-66" style="edgeStyle=orthogonalEdgeStyle;rounded=0;orthogonalLoop=1;jettySize=auto;html=1;entryX=0.5;entryY=0;entryDx=0;entryDy=0;endArrow=none;endFill=0;" parent="1" edge="1">
          <mxGeometry relative="1" as="geometry">
            <mxPoint x="169.76" y="460" as="sourcePoint" />
            <mxPoint x="169.76" y="520" as="targetPoint" />
          </mxGeometry>
        </mxCell>
        <mxCell id="8zY7TGZ-dhfSYkGF-3i7-67" value="1" style="edgeLabel;html=1;align=center;verticalAlign=middle;resizable=0;points=[];" parent="8zY7TGZ-dhfSYkGF-3i7-66" vertex="1" connectable="0">
          <mxGeometry x="0.0111" relative="1" as="geometry">
            <mxPoint as="offset" />
          </mxGeometry>
        </mxCell>
        <mxCell id="8zY7TGZ-dhfSYkGF-3i7-68" style="rounded=0;orthogonalLoop=1;jettySize=auto;html=1;entryX=0.952;entryY=0.75;entryDx=0;entryDy=0;entryPerimeter=0;endArrow=none;endFill=0;" parent="1" source="8zY7TGZ-dhfSYkGF-3i7-57" target="8zY7TGZ-dhfSYkGF-3i7-60" edge="1">
          <mxGeometry relative="1" as="geometry" />
        </mxCell>
        <mxCell id="8zY7TGZ-dhfSYkGF-3i7-80" value="&lt;font style=&quot;font-size: 16px;&quot;&gt;&lt;b&gt;Description&lt;/b&gt;&lt;/font&gt;" style="ellipse;whiteSpace=wrap;html=1;align=center;fillColor=#d5e8d4;strokeColor=#82b366;" parent="1" vertex="1">
          <mxGeometry x="300" width="110" height="40" as="geometry" />
        </mxCell>
        <mxCell id="8zY7TGZ-dhfSYkGF-3i7-81" style="rounded=0;orthogonalLoop=1;jettySize=auto;html=1;entryX=1;entryY=0;entryDx=0;entryDy=0;endArrow=none;endFill=0;" parent="1" source="8zY7TGZ-dhfSYkGF-3i7-80" target="8zY7TGZ-dhfSYkGF-3i7-1" edge="1">
          <mxGeometry relative="1" as="geometry" />
        </mxCell>
        <mxCell id="8zY7TGZ-dhfSYkGF-3i7-85" style="edgeStyle=orthogonalEdgeStyle;rounded=0;orthogonalLoop=1;jettySize=auto;html=1;exitX=1;exitY=0.5;exitDx=0;exitDy=0;entryX=0;entryY=0.5;entryDx=0;entryDy=0;endArrow=none;endFill=0;" parent="1" source="8zY7TGZ-dhfSYkGF-3i7-82" target="8zY7TGZ-dhfSYkGF-3i7-45" edge="1">
          <mxGeometry relative="1" as="geometry" />
        </mxCell>
        <mxCell id="8zY7TGZ-dhfSYkGF-3i7-86" value="0..n" style="edgeLabel;html=1;align=center;verticalAlign=middle;resizable=0;points=[];" parent="8zY7TGZ-dhfSYkGF-3i7-85" vertex="1" connectable="0">
          <mxGeometry x="0.2463" relative="1" as="geometry">
            <mxPoint as="offset" />
          </mxGeometry>
        </mxCell>
        <mxCell id="8zY7TGZ-dhfSYkGF-3i7-82" value="&lt;b&gt;Contains&lt;/b&gt;" style="shape=rhombus;perimeter=rhombusPerimeter;whiteSpace=wrap;html=1;align=center;fillColor=#dae8fc;strokeColor=#6c8ebf;fontSize=16;" parent="1" vertex="1">
          <mxGeometry x="280" y="70" width="120" height="60" as="geometry" />
        </mxCell>
        <mxCell id="8zY7TGZ-dhfSYkGF-3i7-83" style="edgeStyle=orthogonalEdgeStyle;rounded=0;orthogonalLoop=1;jettySize=auto;html=1;entryX=-0.028;entryY=0.494;entryDx=0;entryDy=0;entryPerimeter=0;endArrow=none;endFill=0;" parent="1" source="8zY7TGZ-dhfSYkGF-3i7-1" target="8zY7TGZ-dhfSYkGF-3i7-82" edge="1">
          <mxGeometry relative="1" as="geometry" />
        </mxCell>
        <mxCell id="8zY7TGZ-dhfSYkGF-3i7-84" value="1" style="edgeLabel;html=1;align=center;verticalAlign=middle;resizable=0;points=[];" parent="8zY7TGZ-dhfSYkGF-3i7-83" vertex="1" connectable="0">
          <mxGeometry x="0.1594" y="1" relative="1" as="geometry">
            <mxPoint as="offset" />
          </mxGeometry>
        </mxCell>
        <mxCell id="8zY7TGZ-dhfSYkGF-3i7-87" value="&lt;font style=&quot;font-size: 16px;&quot;&gt;&lt;b&gt;EventID&lt;/b&gt;&lt;/font&gt;" style="ellipse;whiteSpace=wrap;html=1;align=center;fontStyle=4;fillColor=#d5e8d4;strokeColor=#82b366;" parent="1" vertex="1">
          <mxGeometry x="420" width="90" height="40" as="geometry" />
        </mxCell>
        <mxCell id="8zY7TGZ-dhfSYkGF-3i7-88" style="rounded=0;orthogonalLoop=1;jettySize=auto;html=1;entryX=0.25;entryY=0;entryDx=0;entryDy=0;endArrow=none;endFill=0;" parent="1" source="8zY7TGZ-dhfSYkGF-3i7-87" target="8zY7TGZ-dhfSYkGF-3i7-45" edge="1">
          <mxGeometry relative="1" as="geometry" />
        </mxCell>
        <mxCell id="8zY7TGZ-dhfSYkGF-3i7-90" style="rounded=0;orthogonalLoop=1;jettySize=auto;html=1;entryX=0.75;entryY=0;entryDx=0;entryDy=0;endArrow=none;endFill=0;" parent="1" source="8zY7TGZ-dhfSYkGF-3i7-89" target="8zY7TGZ-dhfSYkGF-3i7-45" edge="1">
          <mxGeometry relative="1" as="geometry" />
        </mxCell>
        <mxCell id="8zY7TGZ-dhfSYkGF-3i7-89" value="&lt;font style=&quot;font-size: 16px;&quot;&gt;&lt;b&gt;OptionID&lt;/b&gt;&lt;/font&gt;" style="ellipse;whiteSpace=wrap;html=1;align=center;fontStyle=4;fillColor=#d5e8d4;strokeColor=#82b366;" parent="1" vertex="1">
          <mxGeometry x="520" width="105" height="40" as="geometry" />
        </mxCell>
        <mxCell id="8zY7TGZ-dhfSYkGF-3i7-92" value="&lt;b&gt;Contains&lt;/b&gt;" style="shape=rhombus;perimeter=rhombusPerimeter;whiteSpace=wrap;html=1;align=center;fillColor=#dae8fc;strokeColor=#6c8ebf;fontSize=16;" parent="1" vertex="1">
          <mxGeometry x="470" y="180" width="120" height="60" as="geometry" />
        </mxCell>
      </root>
    </mxGraphModel>
  </diagram>
</mxfile>
